<svg width="375" height="278" viewBox="0 0 375 278" fill="none" xmlns="http://www.w3.org/2000/svg">
<path d="M132.63 163.06C132.63 158.36 129.53 154.36 128.13 149.86C116.63 110.76 99.0299 136.56 101.33 113.96C103.23 95.5598 76.8299 86.6598 74.6299 94.6598C72.9299 101.06 64.5299 104.56 60.5299 99.1598C55.4299 92.3598 57.4299 82.6598 52.9299 75.5598C50.3299 71.4598 45.4299 68.5598 40.3299 68.1598C35.7299 67.7598 30.9299 69.1598 26.4299 67.9598C18.4299 65.7598 14.3299 56.1598 6.1299 55.0598C5.4299 54.9598 4.7299 54.9598 4.0299 55.2598C2.7299 55.7598 2.2299 57.2598 1.9299 58.5598C1.0299 62.0598 0.229902 65.9598 2.3299 68.9598C4.2299 71.6598 8.0299 72.7598 9.8299 75.4598C11.6299 78.1598 11.0299 81.7598 9.9299 84.7598C8.8299 87.7598 7.2299 90.8598 7.4299 94.0598C7.6299 98.6598 11.4299 102.66 15.8299 104.56C20.3299 106.56 25.3299 106.86 30.3299 106.86C31.6299 106.86 32.9299 106.86 34.1299 107.26C38.0299 108.56 38.9299 113.86 36.4299 116.96C35.4299 118.16 34.1299 119.16 33.4299 120.46C31.5299 123.96 34.9299 128.26 38.9299 129.46C42.9299 130.56 47.2299 129.66 51.4299 129.16C55.6299 128.66 60.3299 128.76 63.4299 131.36C67.3299 134.76 66.9299 140.56 69.2299 145.16C71.6299 150.06 77.1299 153.06 82.7299 154.36C88.3299 155.66 94.1299 155.46 99.9299 155.76C112.03 156.36 124.13 158.96 134.53 164.76" fill="#4DC591"/>
<path opacity="0.2" d="M30.8748 123.946C34.0748 134.846 43.9748 144.046 52.8748 151.246C62.2748 158.846 72.7748 165.146 83.3748 171.146C105.575 183.746 128.775 195.446 145.975 214.046C146.475 214.546 147.275 213.846 146.775 213.346C131.675 195.646 110.175 184.346 89.5748 173.046C79.1748 167.246 68.6748 161.446 59.0748 154.446C48.2748 146.646 35.2748 136.446 31.2748 123.846C31.1748 123.646 30.7748 123.746 30.8748 123.946Z" fill="#444472"/>
<path d="M284.875 203.746C289.675 206.146 295.075 206.446 300.475 206.646C311.975 207.046 323.675 206.646 334.675 203.446C337.475 202.646 340.375 201.546 342.675 199.846C345.075 198.046 346.875 195.446 347.075 192.446C347.375 188.346 344.775 184.746 343.075 181.046C342.575 179.946 342.075 178.646 342.375 177.446C343.075 174.646 346.975 174.246 349.875 174.646C352.275 174.946 354.675 175.146 357.075 175.446C360.075 175.746 363.675 175.846 365.375 173.346C366.875 171.246 366.075 168.146 364.175 166.446C362.275 164.746 359.675 164.146 357.075 164.046C354.475 163.946 351.975 164.346 349.375 164.146C348.775 164.146 348.175 164.046 347.675 163.646C346.475 162.746 347.075 160.846 347.875 159.646C349.775 157.046 352.775 155.146 355.975 154.746C359.175 154.346 362.275 155.146 365.475 155.446C368.675 155.746 372.175 155.446 374.475 153.146C376.675 150.946 377.275 147.646 377.175 144.546C376.975 140.146 370.875 134.546 365.075 138.146C361.875 140.146 358.775 142.146 355.675 144.146C353.675 145.446 350.675 146.646 349.075 144.746C347.875 143.246 348.675 140.946 349.875 139.346C354.275 133.046 361.575 129.646 367.475 124.646C376.475 116.946 362.575 103.546 351.075 111.146C348.075 113.146 345.575 115.946 343.775 119.046C341.675 122.746 340.575 126.946 337.775 130.046C336.775 131.146 335.475 132.146 333.975 132.446C332.475 132.646 330.775 131.946 330.275 130.446C329.775 128.946 330.675 127.446 331.275 125.946C332.875 121.646 331.375 116.746 328.675 113.146C327.075 111.046 324.675 109.146 322.075 109.346C318.875 109.646 316.675 112.846 316.175 115.946C315.675 119.046 316.375 122.246 316.375 125.446C316.475 128.646 315.675 132.146 313.075 133.946C312.675 134.246 312.175 134.446 311.675 134.446C311.275 134.446 310.875 134.246 310.475 133.946C307.975 132.146 307.175 128.946 305.775 126.246C304.375 123.546 301.575 120.846 298.675 121.746C296.275 122.546 295.275 125.346 295.375 127.846C295.575 130.346 296.575 132.646 297.075 135.146C298.475 142.646 293.275 150.746 285.975 152.546C283.875 153.046 281.675 153.146 279.775 153.946C276.475 155.246 274.075 158.446 272.975 161.846C271.875 165.246 271.775 168.846 271.775 172.446C271.875 181.646 273.375 192.046 280.775 197.546" fill="url(#paint0_linear_3_587)"/>
<g opacity="0.41">
<path opacity="0.41" d="M362.475 123.446C362.075 123.546 361.775 123.746 361.375 123.846C361.775 123.646 362.075 123.546 362.475 123.346C362.475 123.246 362.575 123.446 362.475 123.446Z" fill="#444472"/>
<path opacity="0.41" d="M357.875 124.946C359.075 124.646 360.175 124.246 361.375 123.846C360.275 124.346 359.075 124.646 357.875 124.946Z" fill="#444472"/>
<path opacity="0.47" d="M302.375 136.146C298.575 150.346 294.975 164.946 298.675 179.446C303.775 172.446 309.175 165.646 314.875 159.046C315.675 146.546 319.575 134.646 323.375 122.746C323.375 122.646 323.575 122.646 323.575 122.846C320.375 134.346 317.375 145.746 316.175 157.646C324.875 147.646 334.275 138.346 344.375 129.946C344.275 129.846 344.275 129.746 344.275 129.646C346.875 123.746 350.475 118.446 354.975 113.846C354.975 113.846 355.075 113.846 355.075 113.946C350.775 118.446 347.475 123.546 345.075 129.346C346.775 127.946 348.475 126.546 350.275 125.246C350.275 125.046 350.275 124.946 350.475 124.946H350.575C353.475 122.646 356.475 120.446 359.575 118.346C359.575 118.346 359.675 118.346 359.675 118.446C356.675 120.546 353.775 122.746 350.975 124.946C353.175 125.246 355.575 125.246 357.875 124.846C355.475 125.446 353.175 125.646 350.475 125.346C341.275 132.646 332.775 140.746 324.875 149.346C337.175 154.046 349.675 149.046 362.075 147.546C362.175 147.546 362.175 147.646 362.075 147.646C349.675 149.446 336.875 154.946 324.475 150.246C324.375 150.246 324.275 150.146 324.275 150.046C321.375 153.146 318.575 156.446 315.875 159.646C315.875 159.946 315.675 160.046 315.475 160.146C313.175 162.946 310.875 165.746 308.575 168.646C321.475 172.546 334.575 173.946 347.875 171.746C347.975 171.746 347.975 171.846 347.875 171.846C334.575 174.546 320.875 173.946 308.075 169.246C303.475 175.146 299.075 181.246 294.775 187.346C307.375 192.546 320.975 196.446 334.175 190.946C334.275 190.946 334.275 191.046 334.175 191.046C320.875 196.846 307.075 193.146 294.175 188.046C292.875 189.946 291.475 191.846 290.175 193.846C289.675 194.646 288.375 193.846 288.875 193.046C291.775 188.746 294.775 184.546 297.775 180.346C293.475 165.346 297.575 150.646 301.875 136.146C302.175 135.946 302.375 136.046 302.375 136.146Z" fill="#444472"/>
</g>
<path d="M81.8469 191.902C79.7469 195.502 76.2469 198.002 72.8469 200.402C65.4469 205.502 57.6469 210.202 49.0469 212.702C46.8469 213.402 44.5469 213.902 42.2469 213.702C39.9469 213.502 37.6469 212.602 36.2469 210.702C34.3469 208.202 34.5469 204.702 34.1469 201.502C34.0469 200.502 33.7469 199.502 33.0469 198.802C31.3469 197.202 28.7469 198.702 26.9469 200.102C25.4469 201.302 23.9469 202.502 22.5469 203.702C20.7469 205.202 18.3469 206.702 16.1469 205.802C14.3469 205.002 13.5469 202.702 14.0469 200.802C14.5469 198.902 16.0469 197.402 17.6469 196.202C19.2469 195.102 21.1469 194.202 22.7469 193.002C23.1469 192.702 23.5469 192.402 23.6469 192.002C24.0469 190.902 22.8469 189.902 21.8469 189.502C19.4469 188.602 16.7469 188.602 14.4469 189.702C12.1469 190.702 10.4469 192.602 8.44691 194.102C6.44691 195.602 4.04691 196.902 1.64691 196.402C-0.653092 195.902 -2.55309 194.002 -3.75309 191.902C-5.55309 188.902 -3.75309 182.702 1.44691 182.602C4.34691 182.502 7.24691 182.602 10.1469 182.602C12.0469 182.602 14.4469 182.102 14.7469 180.202C14.9469 178.702 13.3469 177.602 11.9469 177.002C6.44691 174.702 0.146906 175.602 -5.75309 174.802C-14.8531 173.602 -11.4531 158.902 -0.653095 159.102C2.1469 159.102 4.94691 159.902 7.44691 161.202C10.3469 162.702 12.8469 165.102 16.0469 165.902C17.1469 166.202 18.4469 166.302 19.5469 165.902C20.6469 165.402 21.4469 164.202 21.1469 163.002C20.8469 161.802 19.6469 161.202 18.6469 160.502C15.8469 158.402 14.6469 154.502 14.9469 151.002C15.1469 148.902 15.8469 146.702 17.6469 145.802C19.8469 144.602 22.6469 145.802 24.2469 147.702C25.9469 149.502 26.7469 151.902 28.0469 154.002C29.3469 156.102 31.3469 158.102 33.8469 158.202C34.2469 158.202 34.6469 158.202 35.0469 157.902C35.3469 157.702 35.4469 157.402 35.6469 157.102C36.5469 154.902 35.7469 152.402 35.4469 150.002C35.1469 147.602 35.9469 144.702 38.2469 144.102C40.1469 143.602 42.0469 145.002 42.9469 146.802C43.8469 148.502 44.1469 150.502 44.9469 152.302C47.1469 157.802 53.9469 160.902 59.5469 159.102C61.1469 158.602 62.6469 157.702 64.2469 157.402C66.9469 156.902 69.8469 158.002 72.0469 159.702C74.2469 161.502 75.8469 163.802 77.3469 166.202C81.1469 172.302 84.5469 179.702 82.0469 186.502" fill="#4DC591"/>
<g opacity="0.41">
<path opacity="0.41" d="M10.947 177.745C11.247 177.645 11.547 177.645 11.847 177.545C11.547 177.645 11.247 177.645 10.947 177.745C10.947 177.745 10.947 177.645 10.947 177.745Z" fill="#444472"/>
<path opacity="0.41" d="M14.6469 176.745C13.7469 177.045 12.8469 177.345 11.8469 177.545C12.8469 177.445 13.7469 177.145 14.6469 176.745Z" fill="#444472"/>
</g>
<path d="M115.047 203.913C115.928 198.25 120.101 193.898 122.392 188.705C142.459 143.321 156.611 177.789 158.441 150.001C159.963 127.308 190.358 121.272 191.224 131.353C191.835 139.327 200.295 145.068 205.719 139.282C212.596 131.966 212.272 119.896 218.58 112.009C222.237 107.505 228.114 104.869 233.708 105.188C238.803 105.496 243.749 108.102 248.865 107.41C257.973 106.163 264.267 95.214 273.405 95.3879C274.186 95.3644 274.984 95.4814 275.613 95.9748C276.934 96.8831 277.234 98.7699 277.298 100.472C277.607 104.779 277.782 109.744 274.832 113.022C272.268 115.968 267.933 116.637 265.449 119.645C262.886 122.591 262.931 127.073 263.469 130.925C264.086 134.839 265.203 138.764 264.461 142.629C263.345 148.106 258.514 152.325 253.22 153.893C248.004 155.523 242.375 154.923 237.072 154.07C235.696 153.881 234.241 153.63 232.775 153.879C228.255 154.783 226.241 161.082 228.313 165.247C229.079 166.864 230.389 168.272 230.892 170.063C232.234 174.672 227.735 179.278 223.181 179.901C218.565 180.604 214.126 178.649 209.693 177.335C205.259 176.02 200.175 175.212 196.298 177.891C191.365 181.267 190.672 188.474 187.364 193.505C183.827 198.991 177.248 201.712 170.896 202.197C164.623 202.744 158.286 201.59 152.001 200.856C138.963 199.659 127.459 198.775 115.047 203.913Z" fill="#4DC591"/>
<path d="M101.005 200.853C110.489 190.732 120.073 180.611 127.471 168.872C139.327 150.069 145.014 127.515 143.698 105.304C143.518 102.902 142.643 99.7948 140.243 99.7749C139.143 99.7658 138.239 100.358 137.433 101.052C135.319 102.734 133.403 104.618 131.786 106.705C130.673 108.196 129.259 109.884 127.461 109.669C126.162 109.559 125.271 108.451 124.68 107.346C121.724 102.022 123.48 95.2359 126.723 90.1626C129.965 85.0893 134.599 80.9275 137.842 75.7542C141.085 70.5809 142.742 63.7944 139.685 58.5689C138.896 57.2623 137.706 56.0524 136.206 56.04C135.506 56.0342 134.903 56.3292 134.301 56.6242C127.674 59.8695 125.207 67.9493 122.051 74.6234C121.745 75.3209 121.239 76.1167 120.536 76.4109C119.433 76.8018 118.341 75.8927 117.648 74.9869C114.091 69.7573 117.248 62.8832 119.896 57.1049C123.461 49.3342 126.134 40.456 123.702 32.2356C123.117 30.4307 122.232 28.6233 120.641 27.6101C116.859 25.3787 112.026 29.3388 111.19 33.632C110.355 37.9252 111.718 42.3367 111.782 46.7374C111.773 47.8373 111.664 48.9364 110.857 49.7298C109.547 50.919 107.254 50.1 106.366 48.5926C105.479 47.0852 105.594 45.186 105.809 43.3878C107.025 29.3974 107.753 14.0029 99.0442 2.93034C98.1534 1.82292 97.1625 0.714678 95.7659 0.303094C93.0718 -0.419248 90.4545 1.65914 89.1347 4.04829C85.5826 10.3191 87.2171 18.2329 90.0623 24.8567C92.9075 31.4805 96.956 37.7142 98.298 44.7256C98.7773 47.2296 98.8549 49.9304 97.8359 52.222C96.8169 54.5137 94.4012 56.3937 91.903 56.173C88.6056 55.8457 86.533 52.5284 85.1579 49.5169C83.9778 47.107 82.7977 44.6972 81.6168 42.3873C80.9284 40.9816 79.9417 39.3733 78.3418 39.3601C76.3427 39.2435 75.3212 41.8352 75.3038 43.9351C75.2549 49.8349 78.5092 55.362 82.6743 59.5967C86.7393 63.8305 91.7118 67.1718 96.2802 71.0098C97.4719 72.0197 98.6627 73.1296 99.3511 74.5353C100.236 76.3427 100.118 78.5418 99.7014 80.5385C98.6691 84.43 96.141 87.8092 92.6246 89.7801C90.0122 91.2585 87.0066 91.9337 84.6909 93.8146C80.7653 96.8821 79.7148 102.974 82.48 107.197C84.8492 110.916 89.3358 112.554 93.6299 113.289C97.9239 114.025 102.425 113.962 106.614 115.297C108.509 115.913 110.402 116.728 111.489 118.337C113.07 120.651 112.644 123.747 111.523 126.238C109.792 130.024 106.665 133.198 102.852 134.766C99.34 136.237 95.4376 136.505 91.8278 137.675C88.2188 138.745 84.4991 141.115 83.5684 144.807C82.2238 150.196 87.3846 154.939 92.3638 157.48C97.3437 159.922 103.227 161.97 105.585 166.99C107.257 170.404 106.723 174.5 105.993 178.194C104.426 186.281 101.861 194.06 98.399 201.532" fill="#4DC591"/>
<path d="M373.675 218.346C377.875 214.246 381.175 209.146 383.175 203.646C385.075 198.046 385.275 191.946 385.275 186.046C385.175 179.446 384.775 172.846 384.075 166.346C373.875 169.546 363.775 173.346 354.575 178.746C345.375 184.146 336.775 191.146 331.375 200.446C322.175 216.346 325.275 234.646 325.275 234.646C325.275 234.646 350.975 240.546 373.675 218.346Z" fill="url(#paint1_linear_3_587)"/>
<path opacity="0.3" d="M343.775 219.646C348.975 215.146 354.075 210.346 358.775 205.346C367.775 195.746 375.375 184.946 380.475 172.546C380.575 172.246 380.175 172.046 379.975 172.346C374.375 185.046 365.975 196.146 356.475 205.846C351.975 210.446 347.275 214.746 342.375 218.946C337.275 223.346 331.675 227.146 326.675 231.746C326.075 232.246 326.875 233.046 327.475 232.646C333.275 228.846 338.575 224.146 343.775 219.646Z" fill="url(#paint2_linear_3_587)"/>
<path d="M344.575 248.746C348.775 249.946 353.475 250.246 357.875 249.446C362.375 248.546 366.675 246.446 370.875 244.146C375.475 241.546 379.875 238.746 384.175 235.846C378.575 230.246 372.675 224.946 365.875 220.946C359.075 216.846 351.375 213.846 343.175 213.746C329.075 213.646 317.375 222.746 317.375 222.746C317.375 222.746 321.675 242.146 344.575 248.746Z" fill="url(#paint3_linear_3_587)"/>
<path opacity="0.3" d="M333.875 229.446C338.775 231.246 343.675 232.746 348.775 234.046C358.375 236.346 368.475 237.346 378.775 236.046C378.975 236.046 378.975 235.646 378.775 235.646C368.075 236.746 357.675 235.446 347.775 232.846C343.075 231.646 338.575 230.146 334.075 228.446C329.375 226.646 324.875 224.446 320.075 222.846C319.575 222.646 319.175 223.446 319.675 223.746C324.075 225.946 329.075 227.646 333.875 229.446Z" fill="url(#paint4_linear_3_587)"/>
<path d="M189.602 108.6C193.902 105.3 197.602 101 200.102 96C202.602 90.9 203.602 85.1 204.402 79.3C205.202 72.9 205.802 66.5 206.002 60C196.402 61.4 186.902 63.3 177.902 67C168.902 70.7 160.202 76 154.102 84C143.602 97.8 144.002 116 144.002 116C144.002 116 166.302 126.2 189.602 108.6Z" fill="#4DC591"/>
<g opacity="0.41">
<path opacity="0.41" d="M167.775 131.446C167.675 131.846 167.575 132.146 167.475 132.546C167.575 132.146 167.675 131.846 167.675 131.446C167.675 131.346 167.775 131.446 167.775 131.446Z" fill="#444472"/>
<path opacity="0.41" d="M166.275 135.946C166.675 134.846 167.075 133.746 167.475 132.546C167.175 133.746 166.775 134.846 166.275 135.946Z" fill="#444472"/>
<path opacity="0.47" d="M143.775 185.546C152.175 196.846 160.975 208.346 173.775 214.146C171.475 206.046 169.375 197.846 167.675 189.546C158.875 181.446 152.175 171.446 145.575 161.446C145.475 161.346 145.675 161.246 145.675 161.346C152.375 170.646 159.175 179.746 167.275 187.746C164.775 175.146 163.075 162.346 162.475 149.446C162.375 149.446 162.275 149.446 162.275 149.346C159.375 143.846 157.375 137.946 156.575 131.746C156.575 131.646 156.675 131.646 156.675 131.746C157.675 137.746 159.575 143.346 162.475 148.646C162.375 146.546 162.375 144.346 162.275 142.246C162.175 142.146 162.075 142.046 162.175 141.846L162.275 141.746C162.275 138.146 162.275 134.546 162.475 130.846C162.475 130.746 162.575 130.846 162.575 130.846C162.475 134.346 162.475 137.946 162.575 141.446C163.975 139.946 165.375 138.046 166.275 136.046C165.375 138.246 164.275 140.246 162.575 142.046C162.875 153.446 164.175 164.846 166.075 176.046C176.375 169.246 179.675 156.646 185.375 146.146C185.375 146.046 185.475 146.146 185.475 146.146C179.875 156.846 176.875 169.946 166.475 176.746C166.375 176.846 166.275 176.846 166.175 176.846C166.875 180.946 167.675 184.946 168.575 189.046C168.775 189.246 168.775 189.446 168.675 189.646C169.475 193.146 170.275 196.546 171.175 199.946C181.175 192.346 189.475 182.946 195.275 171.346C195.275 171.246 195.375 171.346 195.375 171.346C189.975 183.246 181.975 193.446 171.375 200.546C173.175 207.646 175.175 214.646 177.375 221.646C188.275 214.946 198.675 206.746 201.975 193.246C201.975 193.146 202.075 193.246 202.075 193.246C198.975 206.946 188.575 215.446 177.675 222.446C178.375 224.646 179.075 226.746 179.775 228.946C180.075 229.846 178.775 230.346 178.475 229.446C176.875 224.646 175.475 219.846 174.075 215.046C160.575 209.446 151.975 197.646 143.675 185.646C143.575 185.546 143.675 185.446 143.775 185.546Z" fill="#444472"/>
</g>
<path d="M149.272 71.6226L81.304 220.541L84.124 221.828L152.092 72.9097L149.272 71.6226Z" fill="#00664F"/>
<path d="M80.7749 225.346C78.4749 224.346 77.4749 221.546 78.4749 219.246C79.4749 216.946 82.2749 215.946 84.5749 216.946C123.375 234.646 169.275 217.546 186.975 178.746C204.675 139.946 187.575 94.0463 148.775 76.3463C146.475 75.3463 145.475 72.5463 146.475 70.2463C147.475 67.9463 150.275 66.9463 152.575 67.9463C195.875 87.7463 215.075 139.046 195.275 182.446C175.475 226.046 124.175 245.146 80.7749 225.346Z" fill="#00664F"/>
<path d="M116.675 219.146C156.66 219.146 189.075 186.732 189.075 146.746C189.075 106.761 156.66 74.3463 116.675 74.3463C76.6895 74.3463 44.2749 106.761 44.2749 146.746C44.2749 186.732 76.6895 219.146 116.675 219.146Z" fill="#B0DDC9"/>
<path d="M182.575 176.846C180.075 182.346 176.975 187.346 173.375 191.946C164.775 195.546 155.175 196.746 145.975 195.146C144.775 194.946 143.575 194.646 142.675 193.846C139.975 191.446 142.275 187.146 142.275 183.546C142.275 180.546 140.475 177.846 138.775 175.346C134.975 169.746 131.175 162.846 133.475 156.346C135.775 149.846 143.475 146.346 145.475 139.746C147.275 133.446 143.175 126.946 143.075 120.346C142.975 115.246 145.475 110.346 148.975 106.746C152.575 103.146 157.175 100.746 161.975 99.0463C164.475 98.1463 167.275 97.5463 169.975 97.5463C189.075 118.446 195.075 149.546 182.575 176.846ZM94.6749 214.346C98.3749 212.546 101.475 209.146 102.175 205.146C102.875 200.746 100.675 196.446 97.9749 192.946C95.1749 189.446 91.8749 186.446 89.5749 182.646C88.5749 181.046 87.8749 179.246 87.8749 177.346C87.9749 172.146 93.5749 168.546 94.1749 163.446C94.7749 158.946 91.1749 154.846 87.1749 152.846C83.0749 150.846 78.4749 150.346 74.0749 149.146C69.6749 147.946 65.2749 145.546 63.4749 141.346C61.2749 136.046 64.0749 129.746 61.0749 124.746C59.1749 121.546 54.1749 119.446 49.8749 118.746C34.7749 154.646 50.8749 196.346 86.5749 212.646C88.6749 213.546 90.6749 214.446 92.7749 215.146C93.4749 214.946 94.0749 214.646 94.6749 214.346ZM74.5749 87.8463C74.7749 88.6463 75.0749 89.4463 75.4749 90.1463C78.9749 97.5463 86.4749 103.146 87.5749 111.246C87.8749 113.446 87.7749 115.946 89.1749 117.646C89.8749 118.546 90.9749 119.046 92.0749 119.546C101.175 123.346 112.575 120.646 118.875 113.046C124.975 105.646 126.075 95.3463 130.875 87.0463C132.275 84.6463 133.975 82.3463 133.975 79.5463C133.975 78.3463 133.575 77.2463 132.975 76.2463C112.375 71.4463 91.1749 75.9463 74.5749 87.8463Z" fill="#2EA889"/>
<path d="M123.775 231.446H109.575V265.246H123.775V231.446Z" fill="#00664F"/>
<path d="M172.775 277.346H60.5749C56.8749 277.346 53.9749 274.346 53.9749 270.746C53.9749 267.046 56.9749 264.146 60.5749 264.146H172.675C176.375 264.146 179.275 267.146 179.275 270.746C179.375 274.346 176.375 277.346 172.775 277.346Z" fill="#00664F"/>
<path d="M326.575 205.946C333.675 205.946 339.475 200.146 339.475 193.046C339.475 185.946 333.675 180.146 326.575 180.146H175.575C180.575 188.746 180.575 197.346 175.575 205.946H326.575Z" fill="#EDEDED"/>
<path d="M326.575 205.946C333.875 205.946 339.775 199.846 339.475 192.446C339.175 185.546 333.175 180.246 326.275 180.246H173.575C172.475 180.246 171.575 179.346 171.575 178.246C171.575 177.146 172.475 176.246 173.575 176.246H326.575C335.875 176.246 343.375 183.746 343.375 193.046C343.375 202.346 335.875 209.846 326.575 209.846H173.575C172.475 209.846 171.575 208.946 171.575 207.846C171.575 206.746 172.475 205.846 173.575 205.846H326.575V205.946Z" fill="#FFC278"/>
<path d="M334.075 182.646L321.875 182.746L298.975 182.946L253.075 183.046L207.175 182.946L184.275 182.846L176.875 182.746C176.775 182.646 176.775 182.546 176.675 182.446L184.175 182.346L207.075 182.246L252.975 182.146L298.875 182.246L321.775 182.346L333.575 182.446C333.875 182.446 333.975 182.546 334.075 182.646ZM337.075 185.646C337.075 185.546 336.975 185.546 336.975 185.446L321.975 185.246L299.075 185.146L253.175 185.046L207.275 185.146L184.375 185.246L178.075 185.346C178.075 185.446 178.175 185.546 178.175 185.746L184.375 185.846L207.275 185.946L253.175 186.046L298.975 185.946L321.875 185.846L337.075 185.646ZM338.675 188.646C338.675 188.646 338.675 188.546 338.575 188.546L321.875 188.346L298.975 188.246L253.075 188.146L207.175 188.246L184.275 188.346L178.875 188.446C178.875 188.546 178.875 188.746 178.975 188.846L184.375 188.946L207.275 189.046L253.175 189.146L298.975 188.946L321.875 188.846L338.675 188.646ZM176.675 203.846L184.175 203.946L207.075 204.046L252.975 204.146L298.875 204.046L321.775 203.946L333.575 203.846C333.675 203.746 333.775 203.646 333.875 203.646L321.675 203.546L298.775 203.446L252.875 203.346L206.975 203.446L184.075 203.546L176.675 203.646C176.775 203.546 176.775 203.746 176.675 203.846ZM336.975 200.746C336.975 200.646 337.075 200.646 337.075 200.546L321.975 200.346L299.075 200.246L253.175 200.146L207.275 200.246L184.375 200.346L178.175 200.446C178.175 200.546 178.075 200.646 178.075 200.846L184.375 200.946L207.275 201.046L253.175 201.146L299.075 201.046L321.975 200.946L336.975 200.746ZM338.575 197.646C338.575 197.646 338.575 197.546 338.675 197.546L321.975 197.346L299.075 197.246L253.175 197.146L207.275 197.246L184.375 197.346L178.975 197.446C178.975 197.546 178.975 197.746 178.875 197.846L184.275 197.946L207.175 198.046L253.075 198.146L298.975 198.046L321.875 197.946L338.575 197.646ZM339.375 194.646V194.546L321.875 194.346L298.975 194.246L253.075 194.146L207.175 194.246L184.275 194.346L179.275 194.446C179.275 194.546 179.275 194.746 179.275 194.846L184.275 194.946L207.175 195.046L253.075 195.146L298.975 194.946L321.875 194.846L339.375 194.646ZM339.375 191.646V191.546L321.975 191.346L299.075 191.246L253.175 191.146L207.275 191.246L184.375 191.346L179.375 191.446C179.375 191.546 179.375 191.746 179.375 191.846L184.375 191.946L207.275 192.046L253.175 192.146L298.975 191.946L321.875 191.846L339.375 191.646Z" fill="#E1E3EF"/>
<path d="M191.875 204.846L198.475 201.046L205.075 204.846V188.246H191.875V204.846Z" fill="#FFC278"/>
<path d="M188.475 239.646C181.375 239.646 175.575 233.846 175.575 226.746C175.575 219.646 181.375 213.846 188.475 213.846H339.475C334.475 222.446 334.475 231.046 339.475 239.646H188.475Z" fill="#EDEDED"/>
<path d="M188.475 239.646C181.175 239.646 175.275 233.546 175.575 226.146C175.875 219.246 181.875 213.946 188.775 213.946H341.375C342.475 213.946 343.375 213.046 343.375 211.946C343.375 210.846 342.475 209.946 341.375 209.946H188.375C179.075 209.946 171.575 217.446 171.575 226.746C171.575 236.046 179.075 243.546 188.375 243.546H341.375C342.475 243.546 343.375 242.646 343.375 241.546C343.375 240.446 342.475 239.546 341.375 239.546H188.475V239.646Z" fill="#FF7648"/>
<path d="M181.275 216.046L193.075 215.946L215.975 215.846L261.875 215.746L307.775 215.846L330.675 215.946L338.175 216.046C338.075 216.146 338.075 216.246 337.975 216.346L330.575 216.446L307.675 216.546L261.775 216.646L215.875 216.546L192.975 216.446L180.775 216.346C181.075 216.246 181.175 216.146 181.275 216.046ZM193.075 219.446L215.975 219.546L261.875 219.646L307.775 219.546L330.675 219.446L336.875 219.346C336.875 219.246 336.975 219.146 336.975 218.946L330.675 218.846L307.775 218.746L261.875 218.646L215.975 218.746L193.075 218.846L178.075 219.046C178.075 219.146 177.975 219.146 177.975 219.246L193.075 219.446ZM193.075 222.446L215.975 222.546L261.875 222.646L307.775 222.546L330.675 222.446L336.075 222.346C336.075 222.246 336.075 222.046 336.175 221.946L330.775 221.846L307.875 221.746L261.975 221.646L216.075 221.746L193.175 221.846L176.475 222.046C176.475 222.046 176.475 222.146 176.375 222.146L193.075 222.446ZM338.175 237.146L330.775 237.046L307.875 236.946L261.975 236.846L216.075 236.946L193.175 237.046L180.975 237.146C181.075 237.246 181.175 237.346 181.275 237.346L193.075 237.446L215.975 237.546L261.875 237.646L307.775 237.546L330.675 237.446L338.175 237.346C338.275 237.446 338.275 237.246 338.175 237.146ZM193.075 234.546L215.975 234.646L261.875 234.746L307.775 234.646L330.675 234.546L336.975 234.446C336.975 234.346 336.875 234.246 336.875 234.046L330.675 233.946L307.775 233.846L261.875 233.746L215.975 233.846L193.075 233.946L177.975 234.146C177.975 234.246 178.075 234.246 178.075 234.346L193.075 234.546ZM193.075 231.546L215.975 231.646L261.875 231.746L307.775 231.646L330.675 231.546L336.075 231.446C336.075 231.346 336.075 231.146 335.975 231.046L330.575 230.946L307.675 230.846L261.775 230.746L215.875 230.846L192.975 230.946L176.275 231.146C176.275 231.146 176.275 231.246 176.375 231.246L193.075 231.546ZM193.075 228.546L215.975 228.646L261.875 228.746L307.775 228.646L330.675 228.546L335.675 228.446C335.675 228.346 335.675 228.146 335.675 228.046L330.675 227.946L307.775 227.846L261.875 227.746L215.975 227.846L193.075 227.946L175.575 228.146V228.246L193.075 228.546ZM193.075 225.546L215.975 225.646L261.875 225.746L307.775 225.646L330.675 225.546L335.675 225.446C335.675 225.346 335.675 225.146 335.675 225.046L330.675 224.946L307.775 224.846L261.875 224.746L215.975 224.846L193.075 224.946L175.675 225.146V225.246L193.075 225.546Z" fill="#E1E3EF"/>
<path d="M327.275 232.646L320.675 228.846L314.175 232.646V215.946H327.275V232.646Z" fill="#FE9946"/>
<path d="M326.575 273.346C333.675 273.346 339.475 267.546 339.475 260.446C339.475 253.346 333.675 247.546 326.575 247.546H175.575C180.575 256.146 180.575 264.746 175.575 273.346H326.575Z" fill="#EDEDED"/>
<path d="M326.575 273.346C333.875 273.346 339.775 267.246 339.475 259.846C339.175 252.946 333.175 247.646 326.275 247.646H173.675C172.575 247.646 171.675 246.746 171.675 245.646C171.675 244.546 172.575 243.646 173.675 243.646H326.675C335.975 243.646 343.475 251.146 343.475 260.446C343.475 269.746 335.975 277.246 326.675 277.246H173.675C172.575 277.246 171.675 276.346 171.675 275.246C171.675 274.146 172.575 273.246 173.675 273.246H326.575V273.346Z" fill="#8F98FF"/>
<path d="M334.075 250.046L321.875 250.146L298.975 250.246L253.075 250.346L207.175 250.246L184.275 250.146L176.875 250.046C176.775 249.946 176.775 249.846 176.675 249.746L184.175 249.646L207.075 249.546L252.975 249.446L298.875 249.546L321.775 249.646L333.575 249.746C333.875 249.846 333.975 249.946 334.075 250.046ZM337.075 253.046C337.075 252.946 336.975 252.946 336.975 252.846L321.975 252.646L299.075 252.546L253.175 252.446L207.275 252.546L184.375 252.646L178.075 252.746C178.075 252.846 178.175 252.946 178.175 253.146L184.375 253.246L207.275 253.346L253.175 253.446L299.075 253.346L321.975 253.246L337.075 253.046ZM338.675 256.046C338.675 256.046 338.675 255.946 338.575 255.946L321.875 255.746L298.975 255.646L253.075 255.546L207.175 255.646L184.275 255.746L178.875 255.846C178.875 255.946 178.875 256.146 178.975 256.246L184.375 256.346L207.275 256.446L253.175 256.546L299.075 256.446L321.975 256.346L338.675 256.046ZM336.975 268.146C336.975 268.046 337.075 268.046 337.075 267.946L321.975 267.746L299.075 267.646L253.175 267.546L207.275 267.646L184.375 267.746L178.175 267.846C178.175 267.946 178.075 268.046 178.075 268.246L184.375 268.346L207.275 268.446L253.175 268.546L299.075 268.446L321.975 268.346L336.975 268.146ZM338.575 265.046C338.575 265.046 338.575 264.946 338.675 264.946L321.975 264.746L299.075 264.646L253.175 264.546L207.275 264.646L184.375 264.746L178.975 264.846C178.975 264.946 178.975 265.146 178.875 265.246L184.275 265.346L207.175 265.446L253.075 265.546L298.975 265.446L321.875 265.346L338.575 265.046ZM339.375 262.046V261.946L321.875 261.746L298.975 261.646L253.075 261.546L207.175 261.646L184.275 261.746L179.275 261.846C179.275 261.946 179.275 262.146 179.275 262.246L184.275 262.346L207.175 262.446L253.075 262.546L298.975 262.446L321.875 262.346L339.375 262.046ZM339.375 259.046V258.946L321.975 258.746L299.075 258.646L253.175 258.546L207.275 258.646L184.375 258.746L179.375 258.846C179.375 258.946 179.375 259.146 179.375 259.246L184.375 259.346L207.275 259.446L253.175 259.546L299.075 259.446L321.975 259.346L339.375 259.046Z" fill="#E1E3EF"/>
<path d="M228.175 272.246L234.775 268.446L241.275 272.246V255.546H228.175V272.246Z" fill="#8F98FF"/>
<defs>
<linearGradient id="paint0_linear_3_587" x1="372.148" y1="115.556" x2="194.474" y2="271.678" gradientUnits="userSpaceOnUse">
<stop stop-color="#6CD3FF"/>
<stop offset="1" stop-color="#8582C9"/>
</linearGradient>
<linearGradient id="paint1_linear_3_587" x1="383.38" y1="180.395" x2="316.136" y2="239.803" gradientUnits="userSpaceOnUse">
<stop offset="0.00060096" stop-color="#B2DB90"/>
<stop offset="1" stop-color="#2BBA90"/>
</linearGradient>
<linearGradient id="paint2_linear_3_587" x1="346.867" y1="185.988" x2="360.522" y2="219.004" gradientUnits="userSpaceOnUse">
<stop stop-color="#2B6565"/>
<stop offset="1" stop-color="#2BBA90"/>
</linearGradient>
<linearGradient id="paint3_linear_3_587" x1="382.176" y1="246.736" x2="306.439" y2="213.145" gradientUnits="userSpaceOnUse">
<stop offset="0.00252404" stop-color="#56D6D5"/>
<stop offset="1" stop-color="#00674B"/>
</linearGradient>
<linearGradient id="paint4_linear_3_587" x1="337.793" y1="211.353" x2="360.38" y2="247.458" gradientUnits="userSpaceOnUse">
<stop stop-color="#2B6565"/>
<stop offset="1" stop-color="#2BBA90"/>
</linearGradient>
</defs>
</svg>
